<svg xmlns="http://www.w3.org/2000/svg" width="434.042" height="126.915" viewBox="458 0 434.042 126.915" enable-background="new 458 0 434.042 126.915"><path fill="#EB601D" d="M892 56.165V0H458v56.165h.042s-1.92 21.468 20.25 26.75 174.41 41.166 174.41 41.166 14.365 2.825 22.298 2.835H675.042c7.933-.01 22.3-2.834 22.3-2.834S849.58 88.197 871.75 82.916 892 56.165 892 56.165z"/><path fill="#18213C" d="M460.855 56.165c0 8.897 3.018 15.625 8.97 19.998 4.372 3.21 8.817 3.94 8.86 3.948l.123.02.12.03c1.74.412 173.985 41.487 181.543 42.706 7.42 1.197 14.48 1.215 14.55 1.215.07 0 7.13-.017 14.55-1.214 7.56-1.22 179.804-42.294 181.543-42.707l.12-.03.122-.02c.717-.11 17.83-3.027 17.83-23.945V0h-428.33v56.165zm2.835-53.33h422.662v53.33c0 7.77-2.516 13.645-7.48 17.46-3.876 2.98-7.937 3.682-7.934 3.682l-.244.036-.24.058c-48.34 11.53-175.15 41.67-181.336 42.67-7.178 1.156-14.033 1.177-14.1 1.177-.066 0-6.878-.014-14.096-1.178-6.186-1-132.996-31.14-181.336-42.67l-.24-.058-.244-.036c-.037-.005-3.84-.668-7.6-3.43-5.184-3.81-7.812-9.768-7.812-17.712V2.834z"/></svg>